 <svg  version="1.0" xmlns="http://www.w3.org/2000/svg"  width="300.000000pt" height="300.000000pt" viewBox="0 0 300.000000 300.000000"  preserveAspectRatio="xMidYMid meet">  <g transform="translate(0.000000,300.000000) scale(0.100000,-0.100000)" fill="#1a1a1a" stroke="none"> <path d="M1461 2690 l-394 -5 -20 -27 -20 -27 29 -40 c16 -23 39 -55 51 -71 37 -52 43 -116 43 -429 l0 -297 -314 -467 c-172 -257 -326 -495 -341 -529 -37 -82 -46 -219 -21 -296 22 -64 90 -142 153 -173 l48 -24 810 0 c917 0 869 -4 963 80 72 65 95 125 90 235 -4 94 -36 179 -102 269 -36 50 -568 868 -584 898 -15 29 -26 613 -13 670 7 28 30 73 56 108 45 60 49 83 21 112 -17 18 -37 19 -455 13z"/> </g> </svg> 