<?xml version="1.0" standalone="no"?>
<!DOCTYPE svg PUBLIC "-//W3C//DTD SVG 20010904//EN"
 "http://www.w3.org/TR/2001/REC-SVG-20010904/DTD/svg10.dtd">
<svg version="1.0" xmlns="http://www.w3.org/2000/svg"
 width="800.000000pt" height="800.000000pt" viewBox="0 0 800.000000 800.000000"
 preserveAspectRatio="xMidYMid meet">
<metadata>
Created by potrace 1.14, written by Peter Selinger 2001-2017
</metadata>
<g transform="translate(0.000000,800.000000) scale(0.100000,-0.100000)"
fill="#000000" stroke="none">
<path d="M3956 7183 c-1 -1 -236 -3 -521 -3 -326 -1 -535 -5 -560 -12 -70 -18
-125 -101 -116 -173 5 -35 32 -79 81 -130 64 -67 116 -138 139 -189 37 -80 50
-116 55 -148 3 -18 9 -54 14 -79 5 -26 9 -170 10 -320 1 -151 4 -513 8 -805
l7 -530 -69 -105 c-38 -57 -71 -106 -74 -109 -3 -3 -64 -93 -135 -200 -72
-107 -132 -197 -135 -200 -3 -3 -96 -140 -206 -305 -110 -165 -231 -344 -267
-397 -37 -54 -67 -100 -67 -103 0 -3 -10 -16 -21 -29 -12 -14 -27 -34 -33 -45
-12 -23 -288 -433 -296 -441 -17 -17 -364 -547 -392 -600 -70 -130 -127 -299
-153 -449 -23 -135 -4 -367 39 -486 25 -70 105 -215 118 -215 4 0 8 -5 8 -10
0 -13 71 -85 130 -132 105 -83 201 -124 355 -152 108 -20 4071 -19 4204 0 98
15 214 50 293 90 49 25 163 108 201 146 33 34 97 114 97 122 0 3 11 23 24 44
33 52 64 144 79 232 13 73 14 235 3 295 -3 17 -9 46 -12 65 -18 111 -139 388
-196 454 -10 11 -18 24 -18 29 0 4 -7 15 -15 23 -13 14 -93 133 -331 494 -49
74 -91 140 -93 145 -2 6 -7 12 -10 15 -3 3 -11 14 -17 25 -10 17 -221 345
-255 395 -77 116 -445 684 -458 708 -7 13 -19 31 -27 40 -18 22 -273 412 -281
432 -4 8 -11 20 -15 25 -5 6 -36 51 -69 102 l-61 92 -3 103 c-2 57 -6 225 -10
373 -3 149 -8 329 -11 402 -12 364 -12 780 0 843 28 144 78 240 195 373 63 72
71 87 72 134 1 52 -3 68 -29 103 -51 68 -18 65 -625 65 -302 0 -550 -1 -551
-2z"/>
</g>
</svg>
