<?xml version="1.0" standalone="no"?>
<!DOCTYPE svg PUBLIC "-//W3C//DTD SVG 20010904//EN"
 "http://www.w3.org/TR/2001/REC-SVG-20010904/DTD/svg10.dtd">
<svg version="1.0" xmlns="http://www.w3.org/2000/svg"
 width="800.000000pt" height="800.000000pt" viewBox="0 0 800.000000 800.000000"
 preserveAspectRatio="xMidYMid meet">
<metadata>
Created by potrace 1.14, written by Peter Selinger 2001-2017
</metadata>
<g transform="translate(0.000000,800.000000) scale(0.100000,-0.100000)"
fill="#000000" stroke="none">
<path d="M3524 7180 l-661 -5 -36 -28 c-39 -30 -54 -52 -68 -100 -16 -55 6
-99 96 -203 99 -112 157 -220 181 -334 13 -62 17 -220 25 -894 l10 -819 -155
-231 c-162 -242 -412 -614 -757 -1126 -674 -1000 -774 -1154 -827 -1272 -101
-224 -139 -458 -109 -664 20 -138 46 -217 104 -317 103 -176 267 -302 472
-360 l76 -22 2035 -3 c1462 -2 2063 0 2135 8 488 56 790 421 735 893 -28 240
-110 431 -297 689 -18 25 -105 156 -191 290 -87 134 -192 295 -234 358 -41 63
-268 412 -503 775 -236 363 -475 731 -532 818 l-103 158 -15 562 c-22 836 -23
1105 -2 1195 27 117 76 204 187 332 31 36 62 82 69 103 24 71 -12 152 -83 186
-47 23 -14 23 -1552 11z"/>
</g>
</svg>
